<svg xmlns="http://www.w3.org/2000/svg" width="19.44" height="20" viewBox="0 0 19.44 20">
  <path id="_Logout" data-name="􀆨 Logout" d="M11.37,3.291a9.329,9.329,0,0,0,3.76-.765A9.954,9.954,0,0,0,18.23.421a9.9,9.9,0,0,0,2.1-3.1,9.347,9.347,0,0,0,.76-3.755,9.274,9.274,0,0,0-.4-2.73,9.85,9.85,0,0,0-1.09-2.39,9.537,9.537,0,0,0-1.595-1.93,1,1,0,0,0-.56-.285.848.848,0,0,0-.525.1.908.908,0,0,0-.365.37.832.832,0,0,0-.09.525,1.037,1.037,0,0,0,.31.565,7.884,7.884,0,0,1,1.845,2.57,7.687,7.687,0,0,1,.675,3.21,7.611,7.611,0,0,1-.61,3.09,8.062,8.062,0,0,1-1.7,2.525,7.892,7.892,0,0,1-2.52,1.7,7.809,7.809,0,0,1-3.1.615A7.759,7.759,0,0,1,8.29.886a7.95,7.95,0,0,1-2.525-1.7,7.882,7.882,0,0,1-1.7-2.525,7.839,7.839,0,0,1-.61-3.09,7.711,7.711,0,0,1,.675-3.22,7.956,7.956,0,0,1,1.835-2.57,1.07,1.07,0,0,0,.315-.565.808.808,0,0,0-.085-.525.9.9,0,0,0-.37-.37.868.868,0,0,0-.53-.1,1,1,0,0,0-.56.285,9.669,9.669,0,0,0-1.6,1.93,9.717,9.717,0,0,0-1.1,2.4A9.324,9.324,0,0,0,1.65-6.429a9.294,9.294,0,0,0,.765,3.755A9.971,9.971,0,0,0,4.52.421a9.954,9.954,0,0,0,3.1,2.105A9.3,9.3,0,0,0,11.37,3.291Zm0-9.75a.837.837,0,0,0,.64-.255.931.931,0,0,0,.24-.665v-8.4a.949.949,0,0,0-.24-.67.829.829,0,0,0-.64-.26.833.833,0,0,0-.635.26.937.937,0,0,0-.245.67v8.4a.92.92,0,0,0,.245.665A.841.841,0,0,0,11.37-6.459Z" transform="translate(-1.65 16.709)" fill="#444"/>
</svg>
