<svg xmlns="http://www.w3.org/2000/svg" width="20" height="20" viewBox="0 0 20 20">
  <path id="Path_1279" data-name="Path 1279" d="M5.827,23.775H18.88a3.546,3.546,0,0,0,2.6-.866,3.465,3.465,0,0,0,.871-2.564V7.206a3.465,3.465,0,0,0-.871-2.564,3.546,3.546,0,0,0-2.6-.866H5.827a3.564,3.564,0,0,0-2.6.86,3.448,3.448,0,0,0-.877,2.57v13.14a3.448,3.448,0,0,0,.877,2.57A3.564,3.564,0,0,0,5.827,23.775Zm.08-1.949a1.607,1.607,0,0,1-1.179-.41A1.641,1.641,0,0,1,4.313,20.2V7.354a1.641,1.641,0,0,1,.416-1.219,1.607,1.607,0,0,1,1.179-.41H18.8a1.627,1.627,0,0,1,1.185.41,1.628,1.628,0,0,1,.421,1.219V20.2a1.455,1.455,0,0,1-1.606,1.63Zm6.424-3.088a.9.9,0,0,0,.729-.3,1.2,1.2,0,0,0,.251-.8V10.374h2.517a.809.809,0,0,0,.581-.217.834.834,0,0,0,0-1.145.822.822,0,0,0-.581-.211H8.868a.822.822,0,0,0-.581.211.834.834,0,0,0,0,1.145.809.809,0,0,0,.581.217h2.494v7.271a1.219,1.219,0,0,0,.245.792A.876.876,0,0,0,12.331,18.738Z" transform="translate(-2.354 -3.775)" fill="#444"/>
</svg>
