<svg xmlns="http://www.w3.org/2000/svg" width="17.001" height="19.996" viewBox="0 0 17.001 19.996">
  <path id="Privacy" d="M-5579.339-715a.66.66,0,0,1-.661-.657v-18.683a.66.66,0,0,1,.661-.657h15.679a.659.659,0,0,1,.661.657v18.683a.659.659,0,0,1-.661.657Zm.661-1.314h14.358v-17.369h-14.358Zm2.587-1.167a.657.657,0,0,1-.657-.657.657.657,0,0,1,.657-.657h8.106a.656.656,0,0,1,.657.657.656.656,0,0,1-.657.657Zm-.034-2.334a.66.66,0,0,1-.663-.658.66.66,0,0,1,.663-.657h9.6a.659.659,0,0,1,.663.657.659.659,0,0,1-.663.658Zm4.5-2.393c-.448-.2-4.372-2.012-4.372-4.542v-3.941a.657.657,0,0,1,.452-.623l3.98-1.314a.674.674,0,0,1,.42,0l3.979,1.314a.657.657,0,0,1,.454.623v3.941c0,2.529-3.925,4.344-4.372,4.542a.674.674,0,0,1-.271.057A.675.675,0,0,1-5571.627-722.212Zm-3.046-8.009v3.467c0,1.305,2.225,2.675,3.317,3.215,1.091-.542,3.316-1.912,3.316-3.215v-3.467l-3.316-1.1Z" transform="translate(5580 735)" fill="#444"/>
</svg>
