<svg xmlns="http://www.w3.org/2000/svg" width="18" height="18" viewBox="0 0 18 18">
  <g id="Group_1681" data-name="Group 1681" transform="translate(-253 -12)">
    <path id="calendar-close" d="M2.829,18A2.829,2.829,0,0,1,0,15.171V4.886A2.829,2.829,0,0,1,2.571,2.069V.771a.771.771,0,0,1,1.543,0V2.057H8.229V.771a.771.771,0,1,1,1.543,0V2.057h4.115V.771a.771.771,0,1,1,1.543,0v1.3A2.829,2.829,0,0,1,18,4.886V15.171A2.829,2.829,0,0,1,15.171,18Z" transform="translate(253 12)" fill="#17a2b8"/>
    <path id="Combined_Shape" data-name="Combined Shape" d="M4.59,5.681,2.953,4.044,1.317,5.681A.771.771,0,0,1,.226,4.59L1.863,2.953.226,1.317A.771.771,0,0,1,1.317.226L2.953,1.863,4.59.226A.771.771,0,1,1,5.681,1.317L4.044,2.953,5.681,4.59A.771.771,0,1,1,4.59,5.681Z" transform="translate(259.047 19.047)" fill="#fff"/>
  </g>
</svg>
