<svg xmlns="http://www.w3.org/2000/svg" width="18.604" height="17.129" viewBox="0 0 18.604 17.129">
  <path id="Path_9" data-name="Path 9" d="M5.322,1.9H17.988a3.036,3.036,0,0,0,2.227-.737,2.963,2.963,0,0,0,.742-2.192v-11.26a2.981,2.981,0,0,0-.742-2.2,3.024,3.024,0,0,0-2.227-.742H5.322a3.042,3.042,0,0,0-2.217.737,2.954,2.954,0,0,0-.752,2.2v11.26a2.937,2.937,0,0,0,.752,2.2A3.055,3.055,0,0,0,5.322,1.9ZM5.244.254a1.23,1.23,0,0,1-.908-.312,1.288,1.288,0,0,1-.312-.947v-8.6a1.273,1.273,0,0,1,.313-.937,1.23,1.23,0,0,1,.908-.312H18.057a1.283,1.283,0,0,1,.923.313,1.239,1.239,0,0,1,.327.938v8.6a1.253,1.253,0,0,1-.327.947,1.283,1.283,0,0,1-.923.313ZM9.873-7.607h.537a.493.493,0,0,0,.337-.088.455.455,0,0,0,.093-.332v-.537a.474.474,0,0,0-.093-.337.474.474,0,0,0-.337-.093H9.873a.514.514,0,0,0-.347.093.443.443,0,0,0-.1.337v.537a.426.426,0,0,0,.1.332A.535.535,0,0,0,9.873-7.607Zm3.037,0h.547A.513.513,0,0,0,13.8-7.7a.439.439,0,0,0,.1-.332v-.537a.458.458,0,0,0-.1-.337.494.494,0,0,0-.342-.093H12.91a.474.474,0,0,0-.337.093.474.474,0,0,0-.093.337v.537a.455.455,0,0,0,.093.332A.493.493,0,0,0,12.91-7.607Zm3.047,0H16.5a.493.493,0,0,0,.337-.088.455.455,0,0,0,.093-.332v-.537a.474.474,0,0,0-.093-.337.474.474,0,0,0-.337-.093h-.547a.492.492,0,0,0-.347.093.474.474,0,0,0-.093.337v.537a.455.455,0,0,0,.093.332A.511.511,0,0,0,15.957-7.607ZM6.826-4.6h.537a.492.492,0,0,0,.347-.093A.474.474,0,0,0,7.8-5.029v-.547a.455.455,0,0,0-.093-.332A.511.511,0,0,0,7.363-6H6.826a.511.511,0,0,0-.347.088.455.455,0,0,0-.093.332v.547a.474.474,0,0,0,.093.337A.492.492,0,0,0,6.826-4.6Zm3.047,0h.537a.474.474,0,0,0,.337-.093.474.474,0,0,0,.093-.337v-.547a.455.455,0,0,0-.093-.332A.493.493,0,0,0,10.41-6H9.873a.535.535,0,0,0-.347.088.426.426,0,0,0-.1.332v.547a.443.443,0,0,0,.1.337A.514.514,0,0,0,9.873-4.6Zm3.037,0h.547a.494.494,0,0,0,.342-.093.458.458,0,0,0,.1-.337v-.547a.439.439,0,0,0-.1-.332A.513.513,0,0,0,13.457-6H12.91a.493.493,0,0,0-.337.088.455.455,0,0,0-.093.332v.547a.474.474,0,0,0,.093.337A.474.474,0,0,0,12.91-4.6Zm3.047,0H16.5a.474.474,0,0,0,.337-.093.474.474,0,0,0,.093-.337v-.547a.455.455,0,0,0-.093-.332A.493.493,0,0,0,16.5-6h-.547a.511.511,0,0,0-.347.088.455.455,0,0,0-.093.332v.547a.474.474,0,0,0,.093.337A.492.492,0,0,0,15.957-4.6ZM6.826-1.611h.537A.511.511,0,0,0,7.71-1.7.455.455,0,0,0,7.8-2.031v-.537A.472.472,0,0,0,7.71-2.91.511.511,0,0,0,7.363-3H6.826a.511.511,0,0,0-.347.088.472.472,0,0,0-.093.342v.537a.455.455,0,0,0,.093.332A.511.511,0,0,0,6.826-1.611Zm3.047,0h.537a.493.493,0,0,0,.337-.088.455.455,0,0,0,.093-.332v-.537a.472.472,0,0,0-.093-.342A.493.493,0,0,0,10.41-3H9.873a.535.535,0,0,0-.347.088.441.441,0,0,0-.1.342v.537a.426.426,0,0,0,.1.332A.535.535,0,0,0,9.873-1.611Zm3.037,0h.547A.513.513,0,0,0,13.8-1.7a.439.439,0,0,0,.1-.332v-.537a.456.456,0,0,0-.1-.342A.513.513,0,0,0,13.457-3H12.91a.493.493,0,0,0-.337.088.472.472,0,0,0-.093.342v.537a.455.455,0,0,0,.093.332A.493.493,0,0,0,12.91-1.611Z" transform="translate(-2.354 15.225)" fill="#707070"/>
</svg>
