<svg xmlns="http://www.w3.org/2000/svg" width="22.51" height="18.848" viewBox="0 0 22.51 18.848">
  <path id="Calendar" d="M5.322,1.9h9.629a4.743,4.743,0,0,1-.4-.791,4.451,4.451,0,0,1-.244-.859H5.244a1.23,1.23,0,0,1-.908-.312,1.288,1.288,0,0,1-.312-.947v-8.6a1.273,1.273,0,0,1,.313-.937,1.23,1.23,0,0,1,.908-.312H18.057a1.283,1.283,0,0,1,.923.313,1.239,1.239,0,0,1,.327.938v2.549q.215-.029.42-.049t.41-.02q.205,0,.41.02t.41.049v-5.225a2.981,2.981,0,0,0-.742-2.2,3.024,3.024,0,0,0-2.227-.742H5.322a3.042,3.042,0,0,0-2.217.737,2.954,2.954,0,0,0-.752,2.2v11.26a2.937,2.937,0,0,0,.752,2.2A3.055,3.055,0,0,0,5.322,1.9ZM9.863-7.607h.547a.493.493,0,0,0,.337-.088.455.455,0,0,0,.093-.332v-.547a.474.474,0,0,0-.093-.337A.474.474,0,0,0,10.41-9H9.863a.494.494,0,0,0-.342.093.458.458,0,0,0-.1.337v.547a.439.439,0,0,0,.1.332A.513.513,0,0,0,9.863-7.607Zm3.037,0h.547a.511.511,0,0,0,.347-.088.455.455,0,0,0,.093-.332v-.547a.474.474,0,0,0-.093-.337A.492.492,0,0,0,13.447-9H12.9a.474.474,0,0,0-.337.093.474.474,0,0,0-.093.337v.547a.455.455,0,0,0,.093.332A.493.493,0,0,0,12.9-7.607Zm3.057,0h.537a.513.513,0,0,0,.342-.088.439.439,0,0,0,.1-.332v-.547a.458.458,0,0,0-.1-.337A.494.494,0,0,0,16.494-9h-.537a.494.494,0,0,0-.342.093.458.458,0,0,0-.1.337v.547a.439.439,0,0,0,.1.332A.513.513,0,0,0,15.957-7.607Zm-9.131,3h.537A.494.494,0,0,0,7.705-4.7a.458.458,0,0,0,.1-.337v-.537a.439.439,0,0,0-.1-.332A.513.513,0,0,0,7.363-6H6.826a.511.511,0,0,0-.347.088.455.455,0,0,0-.093.332v.537a.474.474,0,0,0,.093.337A.492.492,0,0,0,6.826-4.609Zm3.037,0h.547a.474.474,0,0,0,.337-.093.474.474,0,0,0,.093-.337v-.537a.455.455,0,0,0-.093-.332A.493.493,0,0,0,10.41-6H9.863a.513.513,0,0,0-.342.088.439.439,0,0,0-.1.332v.537a.458.458,0,0,0,.1.337A.494.494,0,0,0,9.863-4.609Zm3.037,0h.547a.492.492,0,0,0,.347-.093.474.474,0,0,0,.093-.337v-.537a.455.455,0,0,0-.093-.332A.511.511,0,0,0,13.447-6H12.9a.493.493,0,0,0-.337.088.455.455,0,0,0-.093.332v.537a.474.474,0,0,0,.093.337A.474.474,0,0,0,12.9-4.609Zm-6.074,3h.537A.513.513,0,0,0,7.705-1.7a.439.439,0,0,0,.1-.332v-.547a.456.456,0,0,0-.1-.342.513.513,0,0,0-.342-.088H6.826a.511.511,0,0,0-.347.088.472.472,0,0,0-.093.342v.547a.455.455,0,0,0,.093.332A.511.511,0,0,0,6.826-1.611Zm3.037,0h.547a.493.493,0,0,0,.337-.088.455.455,0,0,0,.093-.332v-.547a.472.472,0,0,0-.093-.342.493.493,0,0,0-.337-.088H9.863a.513.513,0,0,0-.342.088.456.456,0,0,0-.1.342v.547a.439.439,0,0,0,.1.332A.513.513,0,0,0,9.863-1.611Zm3.037,0h.547a.511.511,0,0,0,.347-.088.455.455,0,0,0,.093-.332v-.547a.472.472,0,0,0-.093-.342.511.511,0,0,0-.347-.088H12.9a.493.493,0,0,0-.337.088.472.472,0,0,0-.093.342v.547a.455.455,0,0,0,.093.332A.493.493,0,0,0,12.9-1.611Zm7.236,5.234a4.5,4.5,0,0,0,1.812-.371,4.842,4.842,0,0,0,1.509-1.025A4.912,4.912,0,0,0,24.487.718,4.472,4.472,0,0,0,24.863-1.1a4.551,4.551,0,0,0-.64-2.373A4.844,4.844,0,0,0,22.5-5.19a4.559,4.559,0,0,0-2.368-.64,4.526,4.526,0,0,0-2.368.64,4.91,4.91,0,0,0-1.714,1.714A4.525,4.525,0,0,0,15.41-1.1,4.557,4.557,0,0,0,15.781.723,4.867,4.867,0,0,0,16.8,2.236a4.7,4.7,0,0,0,1.509,1.021A4.609,4.609,0,0,0,20.137,3.623Zm.01-1.748a.594.594,0,0,1-.439-.166.581.581,0,0,1-.166-.43V-.508H17.764a.591.591,0,0,1-.43-.161.578.578,0,0,1-.166-.435.578.578,0,0,1,.166-.435.591.591,0,0,1,.43-.161h1.777V-3.477a.594.594,0,0,1,.166-.439.594.594,0,0,1,.439-.166.578.578,0,0,1,.435.166.6.6,0,0,1,.161.439V-1.7h1.787a.591.591,0,0,1,.43.161.578.578,0,0,1,.166.435.578.578,0,0,1-.166.435.591.591,0,0,1-.43.161H20.742V1.279a.591.591,0,0,1-.161.43A.578.578,0,0,1,20.146,1.875Z" transform="translate(-2.354 15.225)" fill="#707070"/>
</svg>
