<svg xmlns="http://www.w3.org/2000/svg" width="18" height="18" viewBox="0 0 18 18">
  <path id="calendar-dots" d="M2.829,18A2.832,2.832,0,0,1,0,15.171V4.886A2.832,2.832,0,0,1,2.571,2.069V.771a.771.771,0,0,1,1.543,0V2.057H8.229V.771a.771.771,0,1,1,1.543,0V2.057h4.115V.771a.771.771,0,1,1,1.543,0v1.3A2.832,2.832,0,0,1,18,4.886V15.171A2.832,2.832,0,0,1,15.171,18ZM1.543,4.886V15.171a1.288,1.288,0,0,0,1.286,1.286H15.171a1.288,1.288,0,0,0,1.286-1.286V4.886A1.288,1.288,0,0,0,15.171,3.6H2.829A1.288,1.288,0,0,0,1.543,4.886Zm10.544,5.143a1.029,1.029,0,1,1,1.029,1.029A1.029,1.029,0,0,1,12.086,10.029Zm-4.115,0A1.029,1.029,0,1,1,9,11.057,1.029,1.029,0,0,1,7.971,10.029Zm-4.114,0a1.029,1.029,0,1,1,1.029,1.029A1.029,1.029,0,0,1,3.857,10.029Z" fill="#17a2b8"/>
</svg>
