<svg xmlns="http://www.w3.org/2000/svg" width="24.16" height="19.6" viewBox="0 0 24.16 19.6">
  <path id="Attach" d="M5.322-1.2H7.451v-1.65H5.391A1.375,1.375,0,0,1,4.375-3.2a1.432,1.432,0,0,1-.352-1.055V-13.4a1.418,1.418,0,0,1,.352-1.045,1.375,1.375,0,0,1,1.016-.352H18.77a1.4,1.4,0,0,1,1.016.352,1.4,1.4,0,0,1,.361,1.045v2.334H21.8v-2.451a2.969,2.969,0,0,0-.747-2.2,3.027,3.027,0,0,0-2.222-.742H5.322a3.039,3.039,0,0,0-2.222.737,2.966,2.966,0,0,0-.747,2.2v9.385A2.951,2.951,0,0,0,3.1-1.938,3.039,3.039,0,0,0,5.322-1.2Zm4.717,4.346H23.545A3.027,3.027,0,0,0,25.767,2.4a2.969,2.969,0,0,0,.747-2.2V-8.3a2.951,2.951,0,0,0-.747-2.192,3.039,3.039,0,0,0-2.222-.737H22.383a2.238,2.238,0,0,1-.767-.1,1.59,1.59,0,0,1-.542-.41l-.684-.713A2.684,2.684,0,0,0,19.629-13a2.22,2.22,0,0,0-.937-.181H14.883a2.22,2.22,0,0,0-.937.181,2.561,2.561,0,0,0-.752.552l-.684.713a1.676,1.676,0,0,1-.552.41,2.238,2.238,0,0,1-.767.1H10.039a3.036,3.036,0,0,0-2.227.737A2.963,2.963,0,0,0,7.07-8.3V.205a2.981,2.981,0,0,0,.742,2.2A3.024,3.024,0,0,0,10.039,3.145Zm.068-1.66a1.4,1.4,0,0,1-1.03-.356A1.409,1.409,0,0,1,8.721.088V-8.184a1.389,1.389,0,0,1,.356-1.04,1.419,1.419,0,0,1,1.03-.347h1.514a3.08,3.08,0,0,0,.986-.137,1.776,1.776,0,0,0,.742-.518l.84-.869a1.768,1.768,0,0,1,.479-.327,1.583,1.583,0,0,1,.625-.1h3a1.628,1.628,0,0,1,.625.1,1.479,1.479,0,0,1,.469.327l.84.869a1.776,1.776,0,0,0,.742.518,3.08,3.08,0,0,0,.986.137h1.514a1.419,1.419,0,0,1,1.03.347,1.389,1.389,0,0,1,.356,1.04V.088a1.409,1.409,0,0,1-.356,1.04,1.4,1.4,0,0,1-1.03.356ZM16.8.264a4.288,4.288,0,0,0,2.227-.6,4.455,4.455,0,0,0,1.6-1.6,4.315,4.315,0,0,0,.591-2.227,4.282,4.282,0,0,0-.591-2.227,4.52,4.52,0,0,0-1.6-1.6,4.261,4.261,0,0,0-2.227-.6,4.261,4.261,0,0,0-2.227.6,4.56,4.56,0,0,0-1.6,1.6,4.255,4.255,0,0,0-.6,2.227,4.288,4.288,0,0,0,.6,2.227,4.5,4.5,0,0,0,1.6,1.6A4.288,4.288,0,0,0,16.8.264Zm0-1.494a2.8,2.8,0,0,1-1.47-.4A3,3,0,0,1,14.272-2.69a2.835,2.835,0,0,1-.4-1.47,2.809,2.809,0,0,1,.4-1.465,3.017,3.017,0,0,1,1.055-1.06,2.8,2.8,0,0,1,1.47-.4,2.776,2.776,0,0,1,1.465.4,3.03,3.03,0,0,1,1.05,1.06,2.809,2.809,0,0,1,.4,1.465,2.835,2.835,0,0,1-.4,1.47,3.017,3.017,0,0,1-1.05,1.064A2.776,2.776,0,0,1,16.8-1.23Zm5.615-5.01a1.014,1.014,0,0,0,.737-.3.99.99,0,0,0,.308-.732,1.017,1.017,0,0,0-.308-.747,1.006,1.006,0,0,0-.737-.308,1,1,0,0,0-.742.308,1.025,1.025,0,0,0-.3.747,1,1,0,0,0,.3.732A1.009,1.009,0,0,0,22.412-6.24Z" transform="translate(-2.354 16.455)" fill="#727272"/>
</svg>
